<svg xmlns="http://www.w3.org/2000/svg" xmlns:xlink="http://www.w3.org/1999/xlink" width="1000" zoomAndPan="magnify" viewBox="0 0 750 749.999995" height="1000" preserveAspectRatio="xMidYMid meet" version="1.0"><defs><clipPath id="3fd5cefc15"><path d="M 0 153.175781 L 741 153.175781 L 741 594 L 0 594 Z M 0 153.175781 " clip-rule="nonzero"/></clipPath></defs><g clip-path="url(#3fd5cefc15)"><path fill="#000000" d="M 65.992188 548.726562 C 55.1875 548.355469 39.367188 547.167969 1.0625 543.097656 C 0.550781 543.039062 0.164062 542.527344 0.179688 541.929688 C 0.183594 541.324219 0.589844 540.832031 1.097656 540.796875 C 5.925781 540.507812 48.777344 537.875 69.761719 537.710938 C 77.886719 535.257812 82.828125 531.757812 89.050781 524.378906 C 89.230469 524.175781 89.46875 524.054688 89.710938 524.046875 C 101.117188 523.6875 106.769531 522.949219 110.800781 520.929688 C 114.804688 518.925781 117.179688 515.664062 122.074219 510.398438 C 136.734375 494.601562 138.253906 498.1875 157.527344 493.375 C 161.722656 492.335938 163.28125 488.511719 165.347656 484.320312 C 167.074219 480.816406 169.082031 477.042969 172.734375 474.019531 C 174.828125 472.28125 177.46875 470.789062 180.921875 469.742188 C 180.816406 469.425781 180.714844 469.085938 180.628906 468.71875 C 180.167969 466.75 180.28125 465.542969 180.644531 464.816406 C 181.054688 464.007812 181.808594 463.574219 182.9375 463.539062 C 183.28125 463.523438 183.679688 463.546875 184.117188 463.597656 C 184.03125 463.488281 183.960938 463.386719 183.894531 463.285156 C 183.375 462.457031 183.21875 461.5625 183.550781 460.675781 C 183.785156 460.019531 184.054688 459.636719 184.375 459.382812 C 184.691406 459.132812 185.101562 458.996094 185.722656 458.988281 C 185.960938 458.980469 186.234375 458.996094 186.578125 459.023438 C 186.449219 458.726562 186.347656 458.351562 186.261719 457.847656 C 185.988281 456.332031 186.203125 455.472656 186.519531 455.011719 L 186.785156 454.710938 L 187.097656 454.5 C 187.238281 454.421875 187.40625 454.363281 187.585938 454.335938 C 181.554688 440.347656 178.089844 430.917969 175.628906 420.515625 C 175.578125 422.210938 175.511719 423.65625 175.417969 424.78125 C 175.28125 426.382812 175.03125 427.441406 174.765625 427.902344 L 174.527344 428.207031 L 174.296875 428.402344 L 174.050781 428.523438 L 173.777344 428.582031 L 173.382812 428.53125 L 173.066406 428.371094 C 172.894531 428.25 172.691406 428.054688 172.484375 427.730469 C 170.542969 424.664062 169.597656 419.902344 169.226562 415.128906 C 168.9375 411.398438 168.980469 407.675781 169.101562 404.820312 C 167.433594 409.105469 166.851562 414.117188 166.824219 419.140625 C 166.757812 429.519531 169.050781 439.992188 169.460938 444.761719 C 169.5625 445.972656 169.542969 446.875 169.398438 447.417969 L 169.277344 447.777344 L 169.074219 448.152344 L 168.867188 448.382812 L 168.613281 448.5625 L 168.324219 448.679688 L 168.046875 448.714844 L 167.664062 448.664062 C 167.5625 448.628906 167.449219 448.585938 167.332031 448.527344 C 166.59375 448.144531 164.636719 446.03125 162.785156 442.207031 C 159.230469 434.859375 155.765625 421.058594 161.996094 402.050781 C 159.972656 405.773438 158.375 409.898438 157.066406 413.824219 C 154.820312 420.566406 153.425781 426.757812 152.296875 429.546875 C 151.988281 430.3125 151.679688 430.855469 151.390625 431.171875 C 151.304688 431.273438 151.21875 431.359375 151.132812 431.429688 L 150.808594 431.632812 L 150.542969 431.71875 L 150.253906 431.75 L 149.945312 431.691406 L 149.664062 431.574219 L 149.324219 431.300781 C 149.230469 431.214844 149.144531 431.113281 149.058594 430.984375 C 148.671875 430.414062 148.230469 429.210938 147.800781 427.210938 C 145.800781 417.925781 146.230469 411.082031 147.835938 405.996094 C 150.125 398.78125 154.800781 395.023438 158.621094 392.839844 C 159.511719 392.339844 160.347656 391.921875 161.089844 391.574219 C 159.367188 391.769531 157.621094 392.09375 157.382812 392.132812 C 150.511719 393.386719 143.511719 397.578125 140.632812 398.363281 C 139.691406 398.617188 139.03125 398.480469 138.675781 398.210938 L 138.46875 398.011719 L 138.296875 397.75 L 138.167969 397.460938 L 138.101562 397.152344 C 138.050781 396.8125 138.085938 396.308594 138.324219 395.679688 C 138.640625 394.835938 139.382812 393.53125 140.679688 391.65625 C 148.757812 379.925781 159.964844 382.464844 165.417969 384.671875 C 163.84375 382.269531 162.519531 380.359375 162.175781 379.328125 C 162.101562 379.132812 162.066406 378.953125 162.039062 378.800781 L 162.023438 378.359375 L 162.101562 377.921875 L 162.320312 377.488281 L 162.640625 377.171875 L 162.980469 377.011719 C 163.1875 376.945312 163.476562 376.917969 163.84375 376.988281 C 164.679688 377.121094 167.460938 378.851562 169.542969 381.324219 C 169.757812 381.578125 169.964844 381.84375 170.160156 382.117188 C 170.964844 376.238281 173.867188 370.894531 177.636719 367.582031 C 180.960938 364.65625 184.953125 363.304688 188.785156 364.417969 C 189.152344 364.523438 189.433594 364.871094 189.507812 365.3125 C 189.578125 365.75 189.433594 366.199219 189.132812 366.464844 C 181.996094 372.691406 179.363281 375.929688 177.605469 379.082031 C 183.015625 374.355469 193.054688 367.972656 205.117188 373.023438 C 206.628906 373.65625 210.023438 375.785156 211.097656 377.402344 C 211.464844 377.957031 211.613281 378.511719 211.601562 378.980469 L 211.515625 379.5 L 211.296875 379.976562 L 211.003906 380.335938 C 210.902344 380.429688 210.792969 380.511719 210.664062 380.589844 C 210.210938 380.863281 209.449219 381.085938 208.253906 381.117188 C 200.910156 381.332031 191.363281 381.664062 182.46875 386.859375 C 185.195312 386.351562 188.363281 385.90625 191.648438 385.949219 C 200.570312 386.050781 210.3125 389.65625 214.722656 404.488281 C 215.0625 405.636719 215.148438 406.429688 215.082031 406.917969 L 214.945312 407.453125 L 214.808594 407.71875 L 214.613281 407.964844 L 214.355469 408.167969 L 214.082031 408.304688 L 213.773438 408.363281 C 213.652344 408.375 213.507812 408.375 213.355469 408.347656 C 212.789062 408.253906 211.882812 407.769531 210.699219 406.992188 C 208.3125 405.425781 204.570312 402.621094 199.910156 400.40625 C 192.421875 396.835938 186.964844 395.535156 183.296875 395.125 C 185.425781 396.070312 187.5625 397.160156 189.542969 398.542969 C 193.375 401.183594 196.628906 404.863281 198.261719 410.425781 C 199.289062 413.9375 198.492188 419.253906 197.261719 421.621094 C 196.414062 423.28125 195.285156 423.667969 194.355469 422.941406 C 193.339844 422.148438 192.792969 420.546875 192.132812 418.332031 C 191.003906 414.574219 189.140625 408.925781 181.195312 403.492188 C 181.644531 404.234375 182.023438 404.941406 182.234375 405.476562 C 182.464844 406.074219 182.511719 406.574219 182.464844 406.898438 L 182.320312 407.367188 L 182.175781 407.597656 L 182.140625 407.632812 C 182.144531 407.632812 182.144531 407.625 182.144531 407.625 L 182.089844 407.683594 L 181.988281 407.792969 C 181.996094 407.785156 182.003906 407.777344 182.003906 407.777344 L 181.960938 407.828125 L 181.699219 408 L 181.21875 408.109375 C 181.03125 408.117188 180.734375 408.09375 180.277344 407.914062 C 179.65625 407.675781 178.585938 407.09375 176.742188 405.765625 L 176.742188 406.464844 C 176.742188 406.5 176.742188 406.542969 176.742188 406.574219 C 185.21875 431.273438 189.011719 440.738281 192.988281 449.335938 C 193.886719 449.574219 194.824219 450.128906 195.519531 450.84375 C 195.832031 450.410156 196.203125 450.085938 196.605469 449.855469 C 198.375 448.84375 200.835938 449.796875 201.636719 451.890625 C 201.671875 451.984375 201.699219 452.070312 201.730469 452.164062 C 201.78125 452.113281 201.832031 452.046875 201.878906 451.984375 C 202.117188 451.714844 202.296875 451.476562 202.414062 451.261719 C 202.476562 451.144531 202.550781 451.074219 202.535156 450.980469 C 202.527344 450.800781 202.382812 450.683594 202.246094 450.488281 C 201.945312 450.070312 201.542969 449.582031 201.109375 448.9375 C 200.296875 447.710938 200.089844 446.773438 200.160156 446.125 L 200.285156 445.597656 L 200.519531 445.136719 C 200.679688 444.90625 200.886719 444.703125 201.152344 444.53125 C 201.515625 444.308594 202.023438 444.15625 202.652344 444.046875 C 202.507812 443.910156 202.382812 443.789062 202.285156 443.679688 C 202.011719 443.363281 201.832031 443.066406 201.722656 442.726562 C 201.578125 442.273438 201.542969 441.71875 201.730469 440.886719 C 201.875 440.246094 202.082031 439.871094 202.3125 439.625 L 202.550781 439.429688 L 202.808594 439.28125 C 202.988281 439.207031 203.210938 439.164062 203.484375 439.164062 C 203.816406 439.164062 204.289062 439.242188 204.996094 439.292969 C 204.679688 436.164062 205.203125 434.417969 205.945312 433.558594 C 207.074219 432.253906 208.945312 432.519531 210.519531 433.59375 C 210.722656 433.726562 210.925781 433.882812 211.109375 434.042969 C 211.363281 433.550781 211.671875 433.15625 212.015625 432.859375 C 213.199219 431.835938 214.910156 431.828125 216.40625 432.628906 C 217.851562 433.40625 219.0625 434.914062 219.363281 436.71875 C 219.378906 436.796875 219.390625 436.871094 219.398438 436.949219 C 219.839844 436.820312 220.335938 436.746094 220.902344 436.746094 C 222.210938 436.746094 223.074219 437.128906 223.636719 437.65625 C 224.621094 438.59375 224.824219 440.050781 224.566406 441.550781 C 224.464844 442.164062 224.277344 442.785156 224.082031 443.339844 C 224.792969 443.238281 225.105469 443.167969 225.269531 443.160156 L 225.644531 443.175781 L 225.738281 443.21875 L 225.75 443.074219 L 225.839844 442.769531 C 225.945312 442.453125 226.160156 442.121094 226.59375 441.769531 C 226.738281 441.644531 226.875 441.558594 226.996094 441.488281 L 227.371094 441.363281 L 227.636719 441.34375 L 227.894531 441.378906 L 228.328125 441.574219 C 228.621094 441.761719 229.03125 442.195312 229.808594 442.921875 C 230.070312 442.035156 230.429688 440.996094 230.832031 440.296875 C 231.125 439.777344 231.464844 439.410156 231.789062 439.230469 L 232.039062 439.121094 L 232.328125 439.0625 L 232.636719 439.078125 L 232.9375 439.171875 C 234.25 439.75 234.867188 440.375 235.191406 441.046875 C 235.210938 441.097656 235.234375 441.148438 235.253906 441.199219 C 235.722656 441.074219 236.386719 441.105469 237.082031 441.386719 C 238.226562 441.863281 239.4375 442.9375 239.757812 444.105469 C 240.292969 445.988281 240.328125 447.164062 240.117188 448.101562 C 240.070312 448.332031 239.996094 448.550781 239.917969 448.765625 C 239.9375 448.757812 239.960938 448.75 239.988281 448.738281 C 241.320312 448.238281 242.335938 448.441406 243.082031 448.980469 C 243.910156 449.566406 244.457031 450.605469 244.714844 451.808594 C 245.4375 451.398438 246.292969 451.210938 247.285156 451.425781 C 247.226562 451.226562 247.175781 451.023438 247.125 450.84375 C 246.839844 449.675781 246.757812 448.324219 247.429688 447.035156 C 247.671875 446.558594 247.902344 446.277344 248.148438 446.089844 C 248.421875 445.886719 248.730469 445.765625 249.183594 445.734375 C 249.269531 445.734375 249.371094 445.722656 249.480469 445.722656 C 249.328125 445.519531 249.199219 445.324219 249.089844 445.136719 C 248.644531 444.335938 248.574219 443.644531 248.667969 443.101562 C 248.773438 442.488281 249.113281 441.96875 249.660156 441.582031 C 250.175781 441.226562 250.9375 440.996094 251.757812 440.875 C 252.0625 440.832031 252.371094 440.808594 252.671875 440.792969 C 252.34375 440.476562 252.121094 440.269531 251.976562 440.101562 C 251.515625 439.597656 251.4375 439.308594 251.355469 438.789062 C 251.089844 436.890625 251.3125 435.730469 251.714844 435.082031 C 252.199219 434.324219 252.976562 433.992188 254.078125 434.171875 C 254.558594 434.257812 255.132812 434.445312 255.78125 434.691406 C 255.804688 434.433594 255.851562 434.136719 255.953125 433.777344 C 256.566406 431.605469 258.199219 430.925781 259.78125 431.335938 C 259.804688 431.199219 259.832031 431.0625 259.875 430.925781 C 260.078125 430.261719 260.542969 429.554688 261.578125 429.078125 C 262.773438 428.53125 263.492188 428.515625 264.046875 428.746094 C 264.429688 428.90625 264.761719 429.1875 265.097656 429.621094 C 265.226562 429.800781 265.363281 429.996094 265.523438 430.226562 C 265.890625 429.648438 266.21875 429.273438 266.566406 429.023438 C 264.898438 404.328125 264.054688 384.363281 264.164062 366.574219 C 262.910156 367.445312 261.882812 368.152344 261.078125 368.664062 C 259.933594 369.386719 259.113281 369.703125 258.660156 369.683594 L 258.355469 369.632812 L 258.03125 369.488281 L 257.816406 369.320312 L 257.636719 369.089844 L 257.421875 368.585938 L 257.355469 367.914062 C 257.378906 367.453125 257.535156 366.746094 257.875 365.773438 C 259.542969 361.003906 261.796875 357.230469 264.394531 354.238281 C 264.753906 343.460938 265.492188 333.3125 266.660156 323.140625 C 264.847656 327.316406 263.789062 329.453125 263.082031 330.46875 C 262.363281 331.515625 261.773438 331.695312 261.335938 331.679688 L 260.824219 331.542969 C 260.652344 331.457031 260.488281 331.347656 260.320312 331.191406 C 259.78125 330.714844 259.4375 329.972656 259.320312 328.996094 C 259.191406 327.929688 259.351562 326.496094 259.714844 324.894531 C 260.363281 322.09375 261.660156 318.703125 262.859375 315.875 L 262.574219 315.898438 L 262.328125 315.855469 L 262.082031 315.753906 L 261.710938 315.421875 L 261.457031 314.953125 C 261.277344 314.449219 261.121094 314.09375 261.378906 312.917969 C 261.578125 312.015625 262.125 310.371094 263.398438 306.9375 C 259.363281 310.285156 256.027344 316.46875 253.199219 323.320312 C 247.96875 336.015625 244.59375 351.027344 242.449219 355.695312 C 242.261719 356.105469 241.890625 356.335938 241.5 356.292969 C 241.113281 356.25 240.789062 355.933594 240.664062 355.492188 C 239.917969 352.628906 236.117188 338.347656 243.808594 318.21875 C 247.300781 309.09375 253.609375 302.703125 258.386719 298.835938 C 249.386719 303.007812 243.054688 311.035156 238.671875 318.039062 C 234.945312 323.984375 232.578125 329.214844 231.191406 330.972656 C 230.535156 331.789062 229.910156 332.011719 229.472656 331.933594 L 229.175781 331.839844 L 228.910156 331.667969 L 228.609375 331.347656 L 228.40625 330.988281 C 228.210938 330.570312 228.039062 329.878906 227.945312 328.839844 C 226.789062 316.625 228.722656 308.027344 232.21875 301.917969 C 236.320312 294.761719 242.585938 291.003906 248.730469 288.941406 C 252.574219 287.648438 256.351562 287.027344 259.480469 286.625 C 249.40625 283.457031 240.535156 285.773438 233.980469 288.578125 C 228.839844 290.773438 225.074219 293.261719 223.203125 293.808594 C 223.0625 293.851562 222.929688 293.875 222.808594 293.875 L 222.363281 293.832031 L 221.925781 293.601562 L 221.570312 293.21875 C 221.335938 292.851562 221.175781 292.257812 221.25 291.457031 C 221.378906 289.980469 222.335938 287.332031 224.023438 284.417969 C 226.457031 280.226562 230.390625 275.4375 235.226562 272.832031 C 248.609375 265.625 260.765625 274.347656 266.261719 279.453125 C 265.6875 277.746094 265.078125 275.8125 264.628906 274.109375 C 264.15625 272.261719 263.890625 270.652344 263.976562 269.738281 C 263.996094 269.519531 264.035156 269.320312 264.082031 269.160156 L 264.25 268.75 L 264.488281 268.425781 L 264.808594 268.164062 L 265.183594 268.027344 L 265.542969 268.007812 C 265.78125 268.035156 266.082031 268.128906 266.429688 268.351562 C 268.839844 269.902344 270.472656 272.804688 271.542969 275.863281 C 272.097656 277.449219 272.5 279.066406 272.789062 280.535156 C 275.15625 275.421875 279.335938 268.367188 286.035156 266.449219 C 289.789062 265.378906 294.34375 265.871094 299.8125 269.253906 C 300.171875 269.476562 300.371094 269.933594 300.328125 270.414062 C 300.277344 270.878906 299.992188 271.273438 299.59375 271.390625 C 286.636719 275.234375 282.746094 277.40625 279.285156 282.050781 C 282.832031 280.441406 288.773438 278.191406 295.480469 277.664062 C 306.164062 276.828125 318.761719 280.3125 326.914062 297.351562 C 328.265625 300.179688 328.832031 301.925781 328.863281 302.820312 L 328.8125 303.453125 L 328.660156 303.894531 L 328.4375 304.246094 L 328.144531 304.507812 C 327.753906 304.765625 327.054688 304.824219 326.121094 304.398438 C 323.324219 303.128906 316.769531 297.445312 309.769531 294.378906 C 296.4375 288.515625 287.40625 289.273438 282.421875 290.636719 C 296.320312 292.90625 312.222656 299.226562 314.566406 323.761719 C 314.617188 324.25 314.402344 324.707031 314.035156 324.929688 C 313.667969 325.144531 313.230469 325.066406 312.933594 324.726562 C 298.847656 308.769531 292.027344 302.140625 280.925781 300 C 283.59375 302.710938 287.632812 307.15625 290.496094 311.953125 C 293.53125 317.03125 295.15625 322.527344 293.046875 326.855469 C 292.539062 327.914062 291.953125 328.296875 291.429688 328.355469 L 291.085938 328.355469 L 290.769531 328.269531 C 290.59375 328.210938 290.414062 328.109375 290.234375 327.964844 C 289.875 327.671875 289.472656 327.164062 289.042969 326.457031 C 287.191406 323.414062 284.300781 315.960938 277.941406 309.636719 C 279.300781 312.464844 280.867188 316.359375 280.949219 319.417969 C 281.027344 322.078125 280.320312 324.769531 279.667969 326.378906 C 279.320312 327.214844 278.960938 327.785156 278.71875 328.03125 L 278.402344 328.277344 L 278.039062 328.433594 L 277.679688 328.464844 L 277.34375 328.421875 C 276.898438 328.304688 276.34375 327.9375 275.761719 327.273438 C 274.480469 325.832031 272.859375 322.824219 271.585938 319.222656 C 271.652344 324.613281 271.695312 329.632812 271.730469 334.34375 C 272.371094 333.953125 273.140625 333.511719 274.054688 333.023438 C 278.910156 330.417969 284.003906 331.03125 288.5 332.855469 C 292.558594 334.488281 296.105469 337.113281 298.480469 339.082031 C 297.308594 335.894531 296.316406 333.261719 295.726562 331.371094 C 295.328125 330.101562 295.105469 329.128906 295.085938 328.492188 C 295.070312 328.226562 295.089844 328.007812 295.128906 327.820312 L 295.292969 327.308594 L 295.582031 326.898438 L 295.984375 326.625 C 296.328125 326.480469 296.90625 326.480469 297.679688 326.964844 C 300.054688 328.449219 301.566406 331.277344 302.480469 334.285156 C 303.070312 336.203125 303.414062 338.179688 303.625 339.855469 C 310.199219 327.324219 321.984375 325.832031 329.410156 328.941406 C 329.796875 329.105469 330.054688 329.539062 330.054688 330.035156 C 330.054688 330.527344 329.789062 330.960938 329.394531 331.117188 C 318.957031 335.257812 313.558594 338.546875 310.539062 340.972656 C 321.121094 336.695312 328.574219 337.421875 333.753906 339.984375 C 339.882812 343.019531 342.921875 348.667969 344.265625 352.089844 C 344.878906 353.675781 345.144531 354.792969 345.1875 355.003906 L 345.214844 355.277344 L 345.179688 355.644531 L 345.0625 355.933594 L 344.828125 356.242188 L 344.53125 356.410156 C 343.625 356.742188 342.667969 356.632812 341.597656 356.15625 C 340.710938 355.753906 339.71875 355.097656 338.574219 354.296875 C 334.191406 351.230469 327.308594 346.015625 314.0625 347.371094 C 317.789062 348.488281 322.78125 350.4375 327.308594 353.890625 C 332.734375 358.019531 337.480469 364.273438 338.710938 373.707031 C 339.058594 376.355469 339.050781 379.566406 338.515625 381.417969 C 338.179688 382.601562 337.589844 383.308594 336.914062 383.53125 C 336.472656 383.664062 335.964844 383.632812 335.378906 383.28125 C 334.820312 382.941406 334.128906 382.234375 333.335938 381.007812 C 325.070312 368.175781 321.644531 362.265625 313.957031 357.535156 C 319.546875 363.472656 325.574219 372.847656 321.566406 386.691406 C 321.4375 387.132812 321.09375 387.449219 320.6875 387.464844 C 320.292969 387.492188 319.925781 387.21875 319.761719 386.792969 C 313.179688 369.515625 310.71875 365.085938 308.414062 362.578125 C 309.625 366.386719 310.199219 369.011719 310.421875 370.785156 C 310.660156 372.675781 310.472656 373.757812 310.234375 374.300781 L 310.054688 374.644531 L 309.8125 374.933594 L 309.496094 375.164062 L 309.128906 375.28125 L 308.839844 375.289062 L 308.574219 375.230469 L 308.230469 375.050781 L 307.957031 374.8125 C 307.746094 374.574219 307.421875 374.046875 307.070312 373.304688 C 306.386719 371.890625 305.457031 369.601562 304.617188 367.625 C 304.320312 366.925781 303.96875 366.175781 303.675781 365.5625 C 303.636719 365.699219 303.601562 365.84375 303.566406 365.988281 C 305.378906 383.554688 305.675781 391.597656 306.148438 404.15625 C 306.574219 403.59375 307.078125 403.21875 307.640625 403.097656 C 308.773438 402.851562 309.667969 402.996094 310.367188 403.347656 C 311.472656 403.902344 312.136719 405 312.496094 406.21875 C 312.667969 405.929688 312.847656 405.636719 313.050781 405.367188 C 314.035156 404.019531 315.324219 403.046875 316.78125 403.152344 C 317.738281 403.21875 318.820312 403.738281 319.941406 405.058594 C 321.199219 406.523438 322.589844 409.070312 324.035156 413.203125 L 327.308594 408.601562 C 327.609375 408.175781 328.128906 408.074219 328.53125 408.347656 C 328.53125 408.347656 331.148438 410.121094 331.148438 410.121094 C 330.769531 409.351562 330.429688 408.671875 330.179688 408.066406 C 329.53125 406.515625 329.464844 405.28125 329.984375 404.34375 C 330.429688 403.535156 331.488281 402.808594 333.582031 402.453125 C 334.027344 402.382812 334.503906 402.402344 334.984375 402.503906 C 334.871094 402.171875 334.753906 401.839844 334.660156 401.515625 C 334 399.230469 334.191406 397.128906 335.753906 396.191406 C 336.367188 395.832031 337.230469 395.628906 338.445312 395.753906 C 339.675781 395.882812 341.324219 396.351562 343.488281 397.289062 C 343.285156 396.328125 343.085938 395.550781 342.976562 394.878906 C 342.832031 394 342.832031 393.25 343.035156 392.542969 C 343.324219 391.582031 344.027344 390.617188 345.640625 389.5 C 347.027344 388.53125 348.007812 388.25 348.855469 388.402344 C 349.46875 388.511719 350.035156 388.835938 350.640625 389.417969 C 351.539062 390.269531 352.574219 391.75 354.351562 393.703125 C 354.308594 391.300781 354.128906 389.59375 354.1875 388.460938 C 354.25 387.277344 354.5625 386.519531 355.113281 386.050781 C 355.589844 385.640625 356.335938 385.414062 357.53125 385.507812 C 358.820312 385.609375 359.820312 386.015625 360.574219 386.554688 C 361.207031 384.3125 361.984375 383.128906 362.792969 382.652344 C 363.785156 382.0625 364.964844 382.320312 366.289062 383.445312 C 367.605469 384.550781 369.164062 386.570312 371.015625 388.886719 C 373.007812 386.714844 374.53125 384.738281 375.769531 383.921875 C 376.65625 383.324219 377.453125 383.230469 378.179688 383.613281 C 379 384.039062 379.839844 385.285156 380.527344 387.917969 C 380.605469 388.242188 380.660156 389.058594 380.625 390.117188 C 380.574219 391.519531 380.386719 393.414062 380.070312 395.082031 C 382.160156 395.226562 384.613281 395.824219 386.339844 396.914062 C 387.605469 397.714844 388.496094 398.804688 388.792969 400.082031 C 389.898438 400.125 390.964844 400.578125 391.949219 401.269531 C 393.121094 402.09375 394.1875 403.261719 395.066406 404.386719 C 395.007812 402.894531 395.390625 401.625 396 400.65625 C 397.109375 380.921875 397.929688 361.964844 398.554688 344.132812 C 398.171875 344.382812 397.8125 344.609375 397.46875 344.824219 C 395.484375 346.066406 394.027344 346.851562 393.339844 346.988281 L 393.09375 346.996094 L 392.863281 346.945312 L 392.519531 346.714844 L 392.347656 346.484375 L 392.222656 346.230469 L 392.101562 345.582031 C 392.050781 344.945312 392.101562 343.570312 392.410156 341.75 C 393.066406 337.90625 394.855469 331.917969 399.121094 326.582031 C 399.984375 297.589844 400.394531 272.175781 400.84375 252.050781 C 396.84375 259.882812 396.253906 262.378906 391.984375 275.011719 C 391.828125 275.5 391.410156 275.789062 390.972656 275.726562 C 390.539062 275.667969 390.1875 275.269531 390.128906 274.757812 C 387.949219 257.300781 391.980469 249.273438 395.257812 243.601562 C 396.296875 241.8125 397.257812 240.269531 397.898438 238.726562 C 398.445312 237.390625 398.75 236.050781 398.5625 234.511719 C 398.496094 234.425781 398.308594 234.1875 398.136719 234.050781 C 397.71875 233.71875 397.121094 233.4375 396.453125 233.488281 C 395.425781 233.554688 394.300781 234.390625 393.28125 236.578125 C 392.074219 239.171875 391.085938 243.472656 390.632812 250.382812 C 390.527344 252.101562 390.027344 253.082031 389.4375 253.644531 C 388.554688 254.480469 387.300781 254.464844 386.078125 254.15625 C 385.617188 254.035156 385.171875 253.902344 384.769531 253.808594 C 384.667969 253.78125 384.539062 253.765625 384.433594 253.757812 C 385.179688 261.796875 384.34375 265.496094 381.207031 273.011719 C 378.179688 280.269531 372.933594 291.21875 364.792969 313.742188 C 364.640625 314.167969 364.289062 314.441406 363.898438 314.441406 C 363.511719 314.441406 363.15625 314.167969 363.007812 313.742188 C 361.367188 309.195312 352.554688 284.84375 366.574219 252 C 373.804688 235.054688 388.664062 220.496094 394.1875 214.429688 C 377.839844 221.824219 373.65625 230.863281 371.007812 235.632812 C 369.574219 238.222656 368.394531 239.605469 366.574219 239.511719 C 366.1875 239.492188 365.878906 239.503906 365.625 239.554688 C 365.4375 239.585938 365.308594 239.605469 365.230469 239.707031 C 365.152344 239.800781 365.144531 239.945312 365.128906 240.105469 C 365.101562 240.347656 365.09375 240.625 365.085938 240.941406 C 365.070312 241.742188 365.09375 242.730469 364.984375 243.90625 C 364.898438 244.800781 364.582031 245.347656 364.1875 245.671875 C 363.691406 246.078125 362.914062 246.171875 361.929688 245.78125 C 361.15625 245.484375 360.195312 244.894531 359.101562 244.214844 C 358.453125 253.976562 356.308594 257.402344 351.96875 263.078125 C 349.035156 266.910156 345.058594 271.816406 339.789062 280.671875 C 339.574219 281.035156 339.199219 281.222656 338.828125 281.136719 C 338.453125 281.0625 338.15625 280.738281 338.058594 280.304688 C 334.601562 264.890625 334.8125 252.75 337.820312 242.902344 C 341.335938 231.375 348.695312 222.949219 358.652344 216.125 C 367.46875 210.074219 378.324219 205.277344 390.308594 200.617188 C 386.777344 200.183594 381.863281 199.902344 378.53125 201.105469 C 376.128906 201.964844 374.453125 202.773438 373.09375 203.148438 C 372.023438 203.453125 371.113281 203.507812 370.222656 203.242188 C 369.128906 202.910156 368.035156 202.066406 366.667969 200.363281 C 366.007812 202.695312 365.566406 203.8125 365.238281 204.359375 C 364.992188 204.765625 364.753906 204.972656 364.546875 205.109375 L 364.214844 205.261719 C 364.09375 205.296875 363.972656 205.320312 363.839844 205.328125 L 363.453125 205.277344 C 363.351562 205.246094 363.195312 205.175781 363.007812 205.066406 C 362.367188 204.691406 360.976562 203.640625 359.789062 202.945312 C 359.515625 202.78125 359.152344 202.621094 358.898438 202.519531 C 356.761719 208.320312 353.273438 211.292969 347.019531 213.910156 C 340.875 216.480469 331.964844 218.730469 318.863281 223.347656 C 318.523438 223.460938 318.164062 223.355469 317.914062 223.078125 C 317.660156 222.796875 317.558594 222.367188 317.640625 221.96875 C 322.027344 200.6875 337.589844 191.707031 346.335938 187.480469 C 365.503906 178.210938 382.753906 184.6875 393.5625 190.042969 C 388.582031 185.757812 386.214844 185.078125 378.625 178.320312 C 377.300781 178.21875 376.597656 178.066406 376.023438 177.65625 C 375.417969 177.238281 374.929688 176.507812 374.015625 175.050781 C 373.972656 174.972656 373.839844 174.929688 373.496094 175.050781 C 372.839844 175.28125 371.90625 175.910156 370.519531 177.222656 C 370.195312 177.53125 369.742188 177.5625 369.386719 177.300781 C 356.667969 167.757812 356.675781 167.988281 342.332031 162.183594 C 341.921875 162.023438 341.648438 161.546875 341.675781 161.035156 C 341.695312 160.515625 342.011719 160.089844 342.4375 159.976562 C 368.121094 153.382812 381.625 163.675781 396.410156 178.746094 C 391.710938 169.964844 388.230469 163.683594 386.308594 159.78125 C 385.203125 157.515625 384.605469 155.964844 384.519531 155.140625 L 384.523438 154.441406 L 384.707031 153.894531 L 384.941406 153.570312 L 385.230469 153.351562 L 385.53125 153.230469 L 385.804688 153.1875 C 386.324219 153.179688 387.332031 153.632812 388.8125 154.730469 C 401.257812 164 404.238281 179.027344 405.410156 190.273438 C 407.992188 178.492188 411.734375 168.140625 418.714844 161.5625 C 424.453125 156.152344 432.390625 153.257812 443.699219 154.289062 C 444.117188 154.320312 444.46875 154.679688 444.570312 155.15625 C 444.671875 155.640625 444.5 156.144531 444.136719 156.410156 C 441.367188 158.453125 424.992188 170.515625 414.828125 188.027344 C 430.253906 174.148438 443.777344 169.757812 455.023438 170.347656 C 473.621094 171.328125 486.058594 185.921875 490.757812 194.332031 C 492.246094 196.996094 492.953125 199.136719 492.960938 200.125 L 492.925781 200.582031 L 492.835938 200.925781 L 492.699219 201.222656 L 492.492188 201.496094 L 492.261719 201.683594 L 492.015625 201.792969 L 491.550781 201.84375 C 488.910156 201.625 476.039062 195.214844 457.050781 196.613281 C 454.023438 196.835938 451.808594 197.117188 450.007812 197.148438 C 448.050781 197.191406 446.546875 196.945312 445.066406 196.128906 C 443.589844 195.308594 442.132812 193.886719 440.246094 191.476562 C 440.238281 191.835938 440.226562 192.183594 440.195312 192.5 C 440.085938 193.589844 439.792969 194.457031 439.28125 194.988281 C 438.886719 195.402344 438.355469 195.667969 437.613281 195.640625 C 436.859375 195.617188 435.785156 195.242188 434.3125 194.304688 C 434.289062 194.296875 434.253906 194.277344 434.230469 194.269531 C 434.195312 194.3125 434.136719 194.398438 434.101562 194.457031 C 433.972656 194.6875 433.863281 194.960938 433.75 195.242188 C 433.382812 196.152344 432.980469 197.097656 432.410156 197.636719 C 432.023438 198.003906 431.675781 198.140625 431.144531 198.207031 C 430.09375 198.335938 427.886719 198.171875 419.878906 202.269531 C 433.359375 201.105469 454.261719 200.761719 474.296875 218.425781 C 478.605469 222.234375 482.261719 226.851562 485.21875 231.554688 C 491.824219 234.875 494.558594 241.085938 495.886719 245.183594 C 504.699219 228.445312 521.320312 234.542969 523.558594 235.371094 C 523.945312 235.515625 524.210938 235.925781 524.242188 236.402344 C 524.261719 236.878906 524.039062 237.320312 523.671875 237.515625 C 514.492188 242.433594 508.433594 246.0625 504.59375 248.507812 C 510.328125 247.390625 519.199219 246.285156 527.867188 247.773438 C 536.796875 249.300781 545.484375 253.578125 550.472656 263.214844 C 551.191406 264.609375 551.082031 265.597656 550.746094 266.253906 C 550.421875 266.902344 549.753906 267.34375 548.933594 267.523438 C 547.796875 267.769531 546.355469 267.53125 546.183594 267.5 C 524.253906 263.757812 522.390625 263.007812 519.988281 260.734375 C 519.390625 261.398438 518.859375 261.757812 518.355469 261.933594 C 517.636719 262.199219 516.953125 262.121094 516.210938 261.917969 C 515.21875 261.644531 514.0625 261.089844 512.199219 261.839844 C 509.96875 262.753906 507.492188 262.933594 505.277344 262.949219 C 511.378906 264.269531 520.902344 266.867188 529.746094 272.242188 C 541.851562 279.621094 552.644531 292.171875 551.867188 313.597656 C 551.789062 315.78125 551.558594 317.238281 551.226562 318.097656 C 550.851562 319.058594 550.328125 319.496094 549.753906 319.621094 C 549.226562 319.742188 548.574219 319.5625 547.839844 318.976562 C 545.492188 317.101562 541.414062 310.097656 535.21875 302.695312 C 532.261719 299.148438 529.78125 297.097656 527.875 295.230469 C 525.160156 292.570312 523.507812 290.289062 523.167969 285.238281 C 522.738281 285.636719 522.363281 285.960938 522.011719 286.191406 C 521.34375 286.640625 520.722656 286.796875 520.113281 286.683594 C 519.253906 286.523438 518.3125 285.746094 517.097656 283.90625 C 516.757812 283.394531 516.304688 283.625 515.792969 283.796875 C 514.765625 284.144531 513.601562 284.664062 512.371094 284.496094 C 510.457031 284.230469 509.089844 283.824219 508.003906 283.300781 C 511.378906 287.238281 515.285156 292.445312 518.621094 298.621094 C 523.738281 308.078125 527.507812 319.792969 526.039062 332.734375 C 528.773438 335.230469 531.296875 338.101562 533.671875 340.886719 C 532.867188 336.058594 532.335938 332.632812 532.175781 330.484375 C 532.082031 329.105469 532.15625 328.167969 532.328125 327.640625 L 532.480469 327.28125 L 532.714844 326.941406 L 533.0625 326.660156 L 533.464844 326.515625 C 533.875 326.445312 534.5 326.632812 535.242188 327.351562 C 535.464844 327.5625 536.578125 329.199219 537.679688 331.746094 C 538.714844 334.15625 539.757812 337.402344 540.03125 340.957031 C 543.046875 336.730469 548.515625 333.152344 555.441406 333.816406 C 556.789062 333.945312 557.6875 334.097656 558.199219 334.285156 C 558.601562 334.429688 558.851562 334.617188 559.011719 334.796875 L 559.242188 335.144531 L 559.378906 335.648438 L 559.378906 335.972656 L 559.320312 336.253906 L 559.21875 336.527344 L 559.039062 336.824219 C 558.710938 337.257812 557.714844 337.90625 556.199219 338.707031 C 554.199219 339.761719 551.191406 341.269531 547.789062 343.460938 C 550.976562 342.695312 555.003906 342.046875 559.308594 342.199219 C 568.164062 342.523438 578.128906 346.203125 584.300781 358.90625 C 584.722656 359.777344 584.960938 360.457031 585.0625 360.96875 C 585.105469 361.214844 585.121094 361.445312 585.121094 361.640625 L 585.085938 362 L 584.992188 362.367188 L 584.753906 362.816406 L 584.4375 363.160156 C 584.191406 363.363281 583.847656 363.507812 583.402344 363.566406 C 581.789062 363.78125 577.984375 362.578125 572.414062 362.058594 C 570.308594 361.871094 568.566406 361.90625 567.070312 361.839844 C 565.132812 361.746094 563.566406 361.464844 562.164062 360.476562 C 560.941406 359.613281 559.824219 358.207031 558.703125 355.832031 C 558.121094 356.179688 557.652344 356.316406 557.25 356.335938 C 556.558594 356.351562 556.003906 356.042969 555.449219 355.441406 C 555.003906 354.953125 554.550781 354.222656 553.859375 353.386719 C 553.011719 353.617188 551.421875 353.984375 548.890625 354.152344 C 557.910156 358.695312 576.550781 370.742188 577.832031 396.34375 C 577.847656 396.660156 578.019531 400.238281 577.601562 402.734375 C 577.457031 403.621094 577.222656 404.386719 576.925781 404.90625 C 576.601562 405.449219 576.207031 405.785156 575.753906 405.902344 C 575.320312 406.011719 574.8125 405.953125 574.234375 405.535156 C 573.695312 405.152344 573.019531 404.378906 572.234375 403.039062 C 567.449219 394.878906 563.851562 391.164062 561.753906 388.257812 C 560.574219 386.613281 559.832031 385.191406 559.535156 383.496094 C 559.285156 382.039062 559.355469 380.359375 559.824219 378.128906 C 559.351562 378.246094 558.746094 378.402344 558.507812 378.496094 L 557.988281 378.613281 L 557.667969 378.570312 L 557.378906 378.441406 L 556.953125 378.058594 C 556.722656 377.769531 556.515625 377.308594 556.363281 376.738281 C 556.140625 375.871094 556.035156 374.667969 555.976562 373.714844 C 554.804688 374.082031 553.917969 374.132812 553.21875 373.980469 C 552.21875 373.765625 551.523438 373.152344 550.902344 372.265625 C 550.207031 371.269531 549.621094 369.828125 548.523438 368.347656 C 547.191406 366.558594 546.507812 365.832031 545.652344 365.273438 C 547.78125 368.875 550.925781 374.542969 553.285156 381.332031 C 556.714844 391.199219 558.472656 403.398438 553.304688 415.214844 C 553.121094 415.632812 551.027344 420.359375 549.140625 422.355469 C 548.21875 423.335938 547.269531 423.667969 546.523438 423.367188 C 545.839844 423.085938 545.097656 422.175781 544.78125 420.019531 C 544.421875 417.589844 545.03125 413.410156 538.679688 392.023438 C 538.507812 391.445312 538.746094 390.8125 539.21875 390.574219 C 540.867188 389.773438 541.628906 389.367188 542.175781 389.109375 C 541.550781 388.273438 541.183594 387.601562 540.96875 386.9375 C 540.492188 385.507812 540.730469 384.074219 540.824219 380.964844 C 540.917969 377.855469 540.269531 375.648438 539.515625 374.011719 C 539.386719 379.578125 539.441406 380.71875 536.894531 387.515625 C 536.722656 387.992188 536.292969 388.265625 535.859375 388.179688 C 535.429688 388.105469 535.089844 387.6875 535.046875 387.167969 C 534.449219 380.53125 534.796875 376.839844 534.953125 374.730469 C 534.960938 374.601562 534.96875 374.472656 534.980469 374.363281 C 533.9375 375.597656 532.664062 377.386719 532.492188 377.625 C 532.335938 377.847656 532.125 377.984375 531.902344 378.027344 C 526.910156 405.203125 523.933594 425.539062 522.113281 440 C 522.339844 440.144531 522.59375 440.304688 522.859375 440.492188 C 523.730469 441.113281 524.210938 442.230469 524.347656 443.492188 C 524.355469 443.585938 524.363281 443.679688 524.371094 443.765625 C 526.054688 443.398438 528.039062 443.390625 529.527344 444.019531 C 530.78125 444.558594 531.707031 445.519531 532.070312 446.976562 C 532.292969 447.886719 532.285156 449.011719 531.917969 450.402344 C 531.800781 450.820312 531.652344 451.269531 531.464844 451.757812 C 532.167969 451.320312 532.800781 451.203125 533.386719 451.425781 C 534.089844 451.695312 534.859375 452.566406 535.570312 454.59375 C 536.15625 456.246094 536.234375 457.34375 536.039062 458.195312 C 535.890625 458.84375 535.585938 459.382812 535.125 459.910156 C 534.824219 460.25 534.441406 460.582031 533.996094 460.984375 C 535.320312 460.804688 536.3125 460.871094 537.046875 461.078125 C 538.175781 461.410156 538.816406 462.066406 539.175781 462.796875 C 539.304688 463.0625 539.398438 463.335938 539.464844 463.617188 C 540.574219 463.214844 541.558594 463.179688 542.421875 463.367188 C 543.421875 463.589844 544.261719 464.117188 544.945312 464.78125 C 544.996094 464.757812 545.046875 464.742188 545.097656 464.730469 C 545.542969 464.59375 546.148438 464.613281 546.804688 464.75 C 547.890625 464.988281 549.175781 465.566406 550.0625 466 C 550.628906 463.753906 550.746094 462.917969 550.851562 462.578125 L 550.984375 462.242188 L 551.15625 461.980469 L 551.394531 461.765625 L 551.679688 461.613281 C 551.945312 461.519531 552.234375 461.5625 552.472656 461.734375 C 552.472656 461.734375 555.414062 463.863281 555.414062 463.863281 C 555.925781 462.398438 556.175781 461.296875 556.464844 460.632812 C 556.730469 460.011719 557.0625 459.644531 557.429688 459.457031 C 557.910156 459.21875 558.585938 459.226562 559.59375 459.933594 C 560.046875 460.257812 560.398438 460.703125 560.667969 461.1875 C 561.351562 460.15625 562.351562 459.585938 563.449219 459.425781 C 565.644531 459.089844 568.25 460.507812 569.300781 463.105469 C 569.710938 464.117188 569.902344 465.328125 569.722656 466.683594 C 571.996094 466.691406 573.257812 467.550781 573.882812 468.632812 C 574.515625 469.714844 574.574219 471.140625 574.183594 472.570312 C 573.78125 474.070312 572.890625 475.585938 571.933594 476.617188 C 572.472656 477.757812 572.882812 478.976562 572.984375 479.921875 C 573.25 480.035156 573.507812 480.160156 573.761719 480.3125 C 575.011719 481.046875 576.046875 482.214844 576.300781 483.953125 C 577.226562 483.757812 578.617188 483.910156 580.660156 485.109375 C 580.703125 483.5 580.667969 482.878906 580.6875 482.589844 L 580.738281 482.25 L 580.847656 481.957031 L 581.003906 481.6875 L 581.242188 481.457031 C 581.71875 481.082031 582.175781 480.9375 582.601562 480.917969 C 583.140625 479.113281 583.796875 478.117188 584.464844 477.671875 C 585.34375 477.085938 586.359375 477.214844 587.507812 478.066406 C 588.515625 478.804688 589.695312 480.179688 591.085938 481.832031 C 591.847656 480.238281 592.085938 479.554688 592.222656 479.308594 L 592.457031 478.992188 L 592.804688 478.753906 L 593.226562 478.6875 L 593.59375 478.796875 C 593.839844 478.910156 595.285156 479.625 596.402344 480.542969 C 596.96875 481.003906 597.453125 481.542969 597.726562 482.0625 C 597.824219 482.25 597.898438 482.425781 597.957031 482.605469 C 600.453125 482.726562 602.78125 485.699219 601.976562 489.371094 C 601.761719 490.375 601.285156 491.449219 600.472656 492.515625 C 600.546875 492.507812 600.609375 492.507812 600.667969 492.507812 L 600.984375 492.550781 C 601.320312 492.625 601.601562 492.914062 601.710938 493.308594 C 601.710938 493.308594 602.285156 495.359375 602.285156 495.359375 C 602.96875 494.507812 603.222656 494.132812 603.367188 493.972656 L 603.761719 493.664062 L 603.984375 493.578125 L 604.25 493.546875 C 605.496094 493.546875 606.113281 493.953125 606.421875 494.398438 L 606.601562 494.722656 L 606.71875 495.070312 C 606.78125 495.34375 606.804688 495.660156 606.769531 496.007812 C 606.726562 496.375 606.609375 496.816406 606.480469 497.34375 C 607.050781 497.074219 607.550781 496.867188 608 496.75 C 608.824219 496.527344 609.488281 496.613281 609.957031 496.917969 L 610.265625 497.167969 L 610.523438 497.492188 C 610.660156 497.703125 610.769531 497.960938 610.847656 498.265625 C 611.011719 498.878906 611.035156 499.789062 610.820312 501.058594 C 610.539062 502.730469 610.230469 503.804688 609.847656 504.578125 C 609.34375 505.59375 608.71875 506.15625 607.804688 506.691406 C 607.667969 506.769531 607.53125 506.84375 607.386719 506.921875 C 607.496094 506.949219 607.574219 506.964844 607.632812 506.988281 L 607.847656 507.101562 L 608.011719 507.015625 L 608.316406 506.957031 L 608.601562 506.964844 L 608.867188 507.042969 L 609.308594 507.3125 C 609.660156 507.628906 610.019531 508.277344 610.292969 509.113281 C 610.660156 510.226562 610.925781 511.71875 611.085938 512.742188 C 614.050781 512.273438 614.222656 512.902344 617.472656 514.625 C 617.789062 514.785156 618.007812 515.144531 618.042969 515.550781 C 618.085938 515.953125 617.933594 516.351562 617.652344 516.601562 C 616 518.03125 615.597656 518.441406 614.617188 519.25 C 629.128906 520.960938 634.410156 523.261719 641.503906 527.863281 C 653.789062 528.722656 670.066406 534.558594 672.488281 535.4375 C 676.878906 537.023438 683.164062 537.191406 691.238281 537.175781 C 703.554688 537.148438 719.945312 536.640625 739.988281 539.699219 C 740.476562 539.773438 740.84375 540.269531 740.828125 540.855469 C 740.820312 541.445312 740.441406 541.929688 739.945312 541.980469 C 720.769531 543.992188 715.785156 544.808594 686.417969 545.023438 C 681.710938 545.5 676.324219 546.207031 668.949219 547.367188 L 674.710938 550.101562 C 675.128906 550.296875 675.375 550.808594 675.308594 551.335938 C 675.246094 551.863281 674.886719 552.265625 674.4375 552.316406 C 656.933594 554.207031 657.222656 554.429688 639.640625 555.042969 C 639.15625 555.058594 638.742188 554.660156 638.652344 554.097656 C 638.566406 553.542969 638.839844 552.988281 639.292969 552.800781 C 639.292969 552.800781 641.839844 551.769531 641.839844 551.769531 C 625.15625 549.546875 606.0625 549.800781 597.414062 550.058594 L 602.199219 552.65625 C 602.574219 552.859375 602.796875 553.320312 602.761719 553.804688 C 602.726562 554.292969 602.4375 554.691406 602.042969 554.820312 C 602.042969 554.820312 598.277344 555.96875 598.277344 555.96875 C 618.777344 561.023438 620.097656 559.414062 643.164062 563.84375 C 643.652344 563.9375 644 564.449219 643.976562 565.035156 C 643.957031 565.613281 643.566406 566.082031 643.078125 566.125 C 628.050781 567.371094 527.335938 568.441406 513.285156 568.484375 C 512.765625 568.496094 512.335938 568.007812 512.3125 567.394531 C 512.285156 566.78125 512.671875 566.253906 513.191406 566.195312 C 533.003906 564.003906 534.980469 564.582031 550.839844 561.414062 C 532.421875 558.519531 526.765625 557.273438 524.40625 556.761719 C 523.933594 556.660156 523.59375 556.148438 523.613281 555.578125 C 523.636719 555.007812 524.011719 554.539062 524.492188 554.488281 C 524.492188 554.488281 527.636719 554.136719 530.882812 553.78125 C 489.058594 548.464844 423.042969 554.921875 375.761719 551.265625 C 375.273438 551.234375 374.878906 550.765625 374.855469 550.175781 C 374.828125 549.597656 375.171875 549.085938 375.660156 548.984375 C 377.769531 548.558594 394.914062 546.683594 416.929688 544.996094 C 417.851562 544.878906 418.808594 544.75 419.820312 544.613281 C 398.570312 543.171875 385.214844 542.5 372.316406 542.246094 C 356.09375 542.945312 342.179688 543.445312 330.144531 543.828125 C 343.128906 545.535156 347 546.285156 358.878906 548.25 C 359.375 548.335938 359.734375 548.847656 359.710938 549.445312 C 359.691406 550.03125 359.289062 550.507812 358.789062 550.542969 C 308.890625 553.617188 272.574219 552.339844 270.480469 552.253906 C 269.976562 552.238281 269.566406 551.761719 269.542969 551.164062 C 269.523438 550.558594 269.890625 550.039062 270.394531 549.964844 C 272.839844 549.597656 273.105469 549.769531 295.371094 546.472656 C 288.285156 545.832031 283.207031 545.398438 278.765625 544.996094 C 260.695312 545.277344 250.738281 545.457031 239.4375 546.820312 C 242.917969 547.59375 244.796875 548.148438 251.046875 549.28125 C 251.523438 549.367188 251.875 549.851562 251.875 550.414062 C 251.875 550.984375 251.53125 551.472656 251.054688 551.558594 C 249.925781 551.769531 249.753906 551.972656 241.292969 553.789062 C 293.214844 557.980469 351.503906 554.667969 393.949219 559.632812 C 394.445312 559.695312 394.828125 560.1875 394.828125 560.777344 C 394.828125 561.371094 394.445312 561.867188 393.949219 561.925781 C 361.265625 565.683594 258.652344 565.511719 224.203125 566.636719 C 232.070312 568.007812 235.117188 568.605469 247.6875 571.332031 C 248.164062 571.441406 248.5 571.9375 248.480469 572.507812 C 248.464844 573.078125 248.097656 573.546875 247.617188 573.605469 C 219.96875 577.191406 145.734375 578.234375 129.671875 576.546875 C 129.195312 576.496094 128.820312 576.050781 128.785156 575.488281 C 128.75 574.925781 129.066406 574.414062 129.527344 574.289062 C 147.050781 569.347656 149.136719 570.691406 163.355469 567.734375 C 157.84375 566.757812 156.050781 566.117188 147.433594 564.875 C 146.972656 564.804688 146.621094 564.363281 146.585938 563.816406 C 146.546875 563.273438 146.84375 562.769531 147.289062 562.625 C 167.628906 555.773438 170.828125 558.074219 186.699219 555.757812 C 157.808594 553.722656 110.050781 553.226562 89.496094 553.109375 C 102.078125 556.480469 105.9375 557.777344 107.710938 558.363281 C 108.160156 558.519531 108.453125 559.019531 108.417969 559.574219 C 108.375 560.121094 108.015625 560.5625 107.546875 560.613281 C 101.136719 561.40625 100.5625 561.21875 77.28125 560.800781 C 68.46875 561.074219 58.09375 560.878906 51.136719 558.839844 C 50.695312 558.714844 50.394531 558.253906 50.394531 557.71875 C 50.394531 557.1875 50.703125 556.730469 51.144531 556.609375 C 57.710938 554.761719 59.386719 554.683594 63.429688 553.839844 C 61.445312 553.464844 61.316406 553.449219 60.914062 553.363281 C 60.238281 553.226562 59.617188 552.808594 58.949219 552.671875 C 58.488281 552.578125 58.152344 552.109375 58.144531 551.558594 C 58.136719 551.011719 58.460938 550.535156 58.914062 550.414062 C 62.292969 549.554688 64.257812 549.085938 65.992188 548.726562 Z M 182.140625 407.632812 C 182.089844 407.699219 182.046875 407.742188 182.003906 407.777344 L 182.089844 407.683594 Z M 476.960938 438.347656 C 477.046875 438.414062 477.132812 438.472656 477.210938 438.550781 C 477.21875 438.523438 477.226562 438.507812 477.234375 438.480469 C 477.742188 436.761719 478.730469 435.433594 480.339844 435.21875 C 481.527344 435.066406 482.484375 435.851562 483.054688 437.109375 C 483.484375 438.066406 483.65625 439.292969 483.558594 440.40625 C 484.507812 439.734375 485.601562 439.09375 486.664062 438.804688 C 488.40625 438.347656 490.082031 438.730469 491.210938 440.867188 C 491.738281 441.875 491.652344 443.089844 491.058594 444.316406 C 491.449219 444.753906 491.785156 445.367188 492.054688 446.175781 C 492.5 447.503906 492.816406 449.4375 493.191406 451.6875 C 494.40625 450.605469 495.261719 450.070312 496.125 449.96875 C 496.652344 449.90625 497.191406 450.007812 497.832031 450.289062 C 497.664062 449.726562 497.664062 449.234375 497.824219 448.773438 C 497.996094 448.246094 498.441406 447.65625 499.484375 447.085938 C 500.773438 446.386719 501.671875 446.125 502.371094 446.148438 C 503.167969 446.183594 503.773438 446.535156 504.382812 447.1875 C 504.695312 447.53125 505.003906 447.964844 505.382812 448.484375 C 505.433594 447.265625 505.421875 446.386719 505.476562 445.785156 C 505.578125 444.863281 505.859375 444.328125 506.261719 443.996094 C 506.613281 443.714844 507.148438 443.550781 507.996094 443.664062 C 508.234375 443.695312 508.636719 443.875 509.089844 444.207031 C 509.5 442.878906 510.40625 441.625 512.097656 440.910156 C 512.296875 440.824219 512.484375 440.757812 512.664062 440.707031 C 516.242188 416.3125 518.570312 405.246094 525.84375 381.585938 C 524.199219 382.761719 523.269531 383.230469 522.730469 383.359375 C 522.484375 383.410156 522.285156 383.417969 522.125 383.402344 L 521.800781 383.324219 L 521.5 383.15625 L 521.125 382.753906 L 520.886719 382.21875 C 520.703125 381.59375 520.527344 381.136719 520.933594 379.722656 C 521.148438 378.953125 521.585938 377.796875 522.398438 375.886719 C 520.449219 378.339844 518.652344 380.4375 517.578125 381.136719 C 517.125 381.433594 516.730469 381.535156 516.433594 381.519531 L 516.183594 381.484375 L 515.917969 381.367188 L 515.664062 381.179688 L 515.464844 380.941406 C 515.210938 380.566406 515.003906 379.730469 515.292969 378.316406 C 516.210938 373.765625 518.851562 369.488281 521.644531 365.925781 C 519.542969 367.757812 517.875 369.582031 513.527344 372.914062 C 513.253906 373.117188 511.84375 374.277344 511.980469 377.4375 C 512.105469 380.121094 511.601562 381.398438 511.019531 381.96875 C 510.328125 382.660156 509.347656 382.625 508.285156 382.210938 C 507.832031 382.03125 507.355469 381.792969 506.910156 381.628906 C 506.652344 381.535156 506.414062 381.441406 506.203125 381.511719 C 506.082031 381.554688 505.988281 381.578125 505.945312 381.65625 C 505.882812 381.765625 505.886719 381.917969 505.882812 382.082031 C 505.867188 382.40625 505.875 382.78125 505.875 383.195312 C 505.875 385.617188 505.699219 389.535156 500.484375 395.328125 C 495.859375 400.476562 492.648438 404.300781 490.824219 405.28125 C 490.003906 405.722656 489.332031 405.691406 488.835938 405.390625 L 488.558594 405.179688 L 488.3125 404.90625 C 488.191406 404.734375 488.074219 404.53125 487.972656 404.273438 C 487.78125 403.765625 487.648438 402.996094 487.628906 401.957031 C 487.375 385.328125 495.003906 373.742188 503.699219 365.78125 C 506.867188 362.886719 510.175781 360.476562 513.292969 358.472656 C 513.140625 358.488281 513.003906 358.5 512.867188 358.480469 C 512.234375 358.429688 511.738281 358.132812 511.234375 357.585938 C 511.011719 357.347656 510.78125 357.042969 510.507812 356.683594 C 510.414062 357.1875 510.363281 357.46875 510.3125 357.644531 L 510.175781 358.011719 L 510.011719 358.292969 L 509.792969 358.515625 L 509.558594 358.667969 L 509.074219 358.839844 L 508.746094 358.839844 C 508.652344 358.832031 508.550781 358.804688 508.425781 358.769531 C 508.023438 358.652344 507.242188 358.292969 505.484375 357.390625 C 502.433594 361.070312 500.464844 362.347656 497.355469 363.617188 C 494.742188 364.691406 491.289062 365.765625 485.542969 368.40625 C 483.414062 387.867188 480.621094 410.972656 476.960938 438.347656 Z M 409.570312 304.867188 C 409.613281 309.160156 409.648438 313.640625 409.667969 318.335938 C 416.125 315.34375 424.90625 314 436.828125 316.019531 C 426.222656 309.117188 416.179688 306.417969 409.570312 304.867188 Z M 408.613281 263.347656 C 408.964844 272.441406 409.253906 283.011719 409.441406 295.359375 C 414.582031 294.0625 419.871094 294.914062 424.769531 296.78125 C 429.410156 298.542969 433.691406 301.21875 437.152344 303.765625 C 437.222656 294.8125 440.101562 287.894531 444.707031 282.417969 C 443.125 279.808594 441.238281 276.921875 438.90625 273.574219 C 432.222656 276.957031 428.996094 279.035156 427.324219 279.773438 C 426.28125 280.234375 425.628906 280.210938 425.1875 279.980469 C 424.683594 279.722656 424.304688 279.171875 424.03125 278.121094 C 423.742188 277.03125 423.8125 275.21875 424.347656 273.003906 C 425.152344 269.628906 427.015625 265.222656 429.9375 261.226562 C 429.398438 260.519531 428.851562 259.796875 428.289062 259.054688 C 426.195312 259.183594 425.007812 258.714844 424.402344 257.972656 C 423.683594 257.09375 423.554688 255.699219 423.972656 253.796875 C 424.375 251.941406 425.265625 249.460938 425.929688 246.472656 C 426.03125 246.035156 426.085938 245.757812 425.996094 245.558594 C 425.945312 245.457031 425.84375 245.441406 425.734375 245.398438 C 425.546875 245.328125 425.324219 245.277344 425.101562 245.226562 C 424.1875 245.03125 423.167969 244.84375 422.398438 244.171875 C 422.28125 244.070312 421.945312 243.632812 421.484375 242.9375 C 419.992188 240.695312 416.65625 235.277344 414.253906 231.917969 L 414.246094 231.910156 C 415.28125 234.765625 416.964844 239.636719 417.316406 242.441406 C 417.417969 243.269531 417.410156 243.957031 417.304688 244.445312 C 417.265625 244.589844 417.222656 244.726562 417.179688 244.84375 L 416.972656 245.234375 L 416.769531 245.476562 L 416.527344 245.679688 L 416.21875 245.824219 L 415.898438 245.882812 C 415.65625 245.910156 415.375 245.867188 415.042969 245.722656 C 414.808594 245.621094 414.527344 245.449219 414.195312 245.203125 C 415.800781 250.628906 418.289062 260.042969 418.785156 267.992188 C 419.101562 273.019531 418.589844 277.464844 416.757812 280.148438 C 416.261719 280.875 415.863281 281.335938 415.5625 281.546875 L 415.125 281.769531 L 414.75 281.828125 L 414.308594 281.726562 L 413.949219 281.480469 C 413.757812 281.300781 413.554688 281.011719 413.375 280.566406 C 412.691406 278.839844 412.03125 273.324219 408.613281 263.347656 Z M 271.925781 361.4375 C 271.976562 366.550781 272.039062 371.285156 272.148438 375.8125 C 273.636719 368.6875 277.421875 363.089844 281.507812 358.855469 C 283.933594 356.351562 286.457031 354.324219 288.652344 352.757812 C 285.507812 353.796875 280.875 355.933594 272.378906 361.15625 C 272.226562 361.25 272.078125 361.34375 271.925781 361.4375 Z M 409.078125 397.84375 C 409.667969 396.019531 410.332031 394.757812 411.007812 393.933594 C 411.699219 393.089844 412.433594 392.664062 413.144531 392.527344 C 414.210938 392.339844 415.289062 392.808594 416.265625 393.820312 C 417.476562 395.074219 418.539062 397.222656 419.195312 399.605469 C 419.582031 401.019531 419.820312 402.519531 419.878906 403.953125 C 420.035156 403.984375 420.195312 404.035156 420.359375 404.097656 C 422.382812 404.828125 423.582031 405.980469 424.261719 407.273438 C 425.273438 409.242188 425.085938 411.660156 424.339844 413.960938 C 424.1875 414.40625 424.023438 414.847656 423.84375 415.28125 C 424.425781 415.265625 425.144531 415.453125 426.128906 415.964844 C 428.777344 417.335938 430.007812 418.621094 430.453125 420.046875 C 430.75 420.984375 430.734375 422.023438 430.460938 423.28125 C 430.230469 424.304688 429.8125 425.507812 429.3125 426.980469 C 431.347656 426.085938 432.8125 425.113281 433.886719 424.730469 C 434.726562 424.441406 435.410156 424.46875 435.980469 424.789062 C 436.152344 424.894531 436.324219 425.039062 436.492188 425.21875 C 436.492188 399.222656 437.28125 381.050781 440.074219 358.5 C 434.980469 367.5625 433.265625 371.949219 432.261719 373.195312 C 432.023438 373.476562 431.800781 373.664062 431.597656 373.765625 L 431.296875 373.886719 L 430.957031 373.925781 C 430.492188 373.910156 429.9375 373.5625 429.347656 372.632812 C 427.902344 370.332031 427.707031 366.957031 428.28125 363.296875 C 429.203125 357.433594 432.03125 350.796875 433.699219 347.21875 L 433.125 347.125 L 432.722656 346.894531 L 432.519531 346.691406 L 432.355469 346.441406 L 432.160156 345.898438 C 432.085938 345.546875 432.101562 345.070312 432.261719 344.492188 C 432.726562 342.753906 434.800781 339.277344 437.613281 334.609375 C 434.355469 336.738281 427.972656 342.984375 412.460938 365.730469 C 412.222656 366.082031 411.84375 366.234375 411.476562 366.125 C 411.109375 366.019531 410.828125 365.671875 410.757812 365.238281 C 409.46875 357.78125 409.949219 351.980469 411.714844 347.234375 C 413.484375 342.480469 416.539062 338.773438 420.496094 335.5625 C 424.175781 332.5625 428.632812 329.992188 433.503906 327.332031 C 427.160156 328.3125 425.246094 328.925781 416.425781 333.433594 C 414.117188 334.609375 411.851562 335.878906 409.699219 337.148438 C 409.664062 354.773438 409.476562 374.875 409.078125 397.84375 Z M 487.375 350.863281 C 489.84375 348.597656 492.414062 346.886719 495.015625 345.609375 C 493.175781 343.921875 490.980469 341.859375 488.457031 339.679688 C 488.125 343.230469 487.765625 346.960938 487.375 350.863281 Z M 277.011719 433.363281 C 277.429688 433.269531 277.804688 433.285156 278.15625 433.394531 C 278.703125 433.566406 279.242188 433.96875 279.890625 434.742188 C 280.128906 435.015625 280.488281 435.851562 280.625 436.933594 C 280.816406 438.386719 280.644531 440.269531 279.625 441.480469 C 279.542969 441.574219 279.457031 441.6875 279.386719 441.789062 C 279.40625 441.804688 279.429688 441.8125 279.449219 441.820312 C 279.730469 441.984375 280.054688 442.15625 280.402344 442.375 C 280.59375 442.496094 280.789062 442.632812 280.984375 442.792969 C 281.148438 441.601562 281.515625 440.28125 282.449219 439.25 C 283.363281 438.242188 284.867188 437.476562 287.445312 437.585938 C 287.292969 437.015625 287.226562 436.464844 287.234375 435.933594 C 287.242188 435.21875 287.386719 434.554688 287.609375 433.957031 C 287.035156 432.867188 286.609375 431.480469 286.550781 430.21875 C 286.496094 429.085938 286.730469 428.054688 287.277344 427.296875 C 287.859375 426.503906 288.824219 425.957031 290.34375 426.09375 C 290.722656 426.128906 291.0625 426.222656 291.359375 426.351562 C 291.464844 425.855469 291.617188 425.445312 291.789062 425.113281 C 292.371094 424.023438 293.277344 423.511719 294.582031 423.4375 C 294.917969 423.417969 295.292969 423.429688 295.703125 423.460938 L 295.710938 423.273438 C 295.472656 422.960938 295.335938 422.625 295.273438 422.277344 C 295.183594 421.757812 295.277344 421.09375 295.761719 420.242188 C 296.121094 398.652344 296.40625 382.082031 298.179688 367.113281 C 294.8125 371.558594 293.679688 373.980469 293.179688 375.070312 C 292.949219 375.554688 292.796875 375.84375 292.675781 375.988281 L 292.472656 376.195312 L 292.269531 376.320312 L 291.847656 376.414062 L 291.429688 376.320312 L 290.976562 375.980469 L 290.773438 375.726562 L 290.617188 375.453125 C 290.515625 375.230469 290.429688 374.949219 290.378906 374.617188 C 290.300781 374.0625 290.328125 373.296875 290.457031 372.386719 C 290.960938 368.902344 293.070312 362.878906 294.496094 359.035156 C 291.011719 361.949219 287.710938 366.132812 284.789062 370.253906 C 281.035156 375.554688 277.910156 380.785156 275.847656 383.375 C 275.121094 384.289062 274.488281 384.894531 273.992188 385.15625 C 273.796875 385.269531 273.601562 385.335938 273.429688 385.359375 L 272.984375 385.371094 L 272.59375 385.242188 L 272.429688 385.121094 C 273.011719 400.144531 274.242188 413.945312 277.011719 433.363281 Z M 271.765625 339.652344 C 271.789062 342.574219 271.808594 345.378906 271.824219 348.078125 C 278.257812 344.296875 285.328125 343.289062 290.773438 343.027344 C 282.628906 340.597656 275.21875 340.308594 271.765625 339.652344 Z M 509.109375 325.519531 C 507.65625 319.402344 506.21875 315.679688 505.242188 312.535156 C 503.925781 308.308594 503.382812 305.085938 504.621094 298.945312 C 500.339844 298.210938 500.320312 296.421875 500.246094 295.894531 C 499.953125 293.542969 499.695312 292.171875 499.234375 291.132812 C 498.765625 290.085938 498.105469 289.359375 497.0625 288.296875 C 497.476562 292.144531 498.054688 298.699219 497.816406 303.894531 C 497.65625 307.3125 497.097656 310.164062 496.058594 311.554688 C 495.878906 311.792969 495.695312 311.988281 495.5 312.117188 L 495.21875 312.277344 L 494.886719 312.363281 L 494.441406 312.347656 L 494.039062 312.191406 C 493.835938 312.082031 493.613281 311.902344 493.382812 311.632812 C 492.84375 311.015625 492.125 309.664062 491.082031 307.105469 C 490.824219 311.109375 490.507812 315.507812 490.125 320.339844 C 497.601562 326.558594 501.621094 335.808594 502.78125 343.019531 C 505.835938 342.414062 508.882812 342.269531 511.808594 342.386719 C 511.492188 340.171875 511.246094 338.035156 511.0625 336.355469 C 506.894531 334.464844 503.484375 333.152344 501.835938 332.035156 C 500.808594 331.328125 500.347656 330.535156 500.296875 329.898438 L 500.296875 329.472656 L 500.390625 329.070312 L 500.628906 328.566406 C 500.714844 328.441406 500.816406 328.3125 500.945312 328.183594 C 501.363281 327.757812 502.117188 327.300781 503.304688 326.839844 C 505.328125 326.0625 507.261719 325.644531 509.109375 325.519531 Z M 471.960938 243.394531 C 466.277344 239.824219 458.730469 235.4375 448.628906 230.0625 C 445.988281 228.664062 444.5625 227.964844 443.554688 226.832031 C 442.519531 225.667969 441.878906 224.046875 440.953125 220.671875 C 440.929688 220.578125 440.886719 220.476562 440.859375 220.410156 C 440.734375 220.46875 440.511719 220.605469 440.367188 220.714844 C 440.179688 220.878906 439.996094 221.058594 439.800781 221.246094 C 439.253906 221.773438 438.722656 222.308594 438.304688 222.554688 L 437.757812 222.761719 L 437.253906 222.742188 C 429.074219 220.664062 424.851562 217.53125 418.578125 215.816406 C 428.398438 222.546875 441.089844 231.265625 450.542969 245.621094 C 458.367188 242.390625 465.492188 242.246094 471.960938 243.394531 Z M 447.390625 303.972656 C 448.546875 306.875 449.109375 309.664062 449.375 311.914062 C 450.757812 308.820312 452.613281 306.203125 454.800781 304.109375 C 454.101562 302.308594 453.460938 300.640625 452.835938 299.046875 C 450.726562 300.894531 448.929688 302.550781 447.390625 303.972656 Z M 467.484375 298.410156 C 468.289062 296.617188 469.210938 294.890625 470.195312 293.210938 C 472.917969 288.585938 476.167969 284.402344 479.082031 280.753906 C 478.464844 280.976562 477.878906 281.070312 477.246094 281.046875 C 476.125 280.984375 474.828125 280.523438 472.894531 279.554688 C 470.007812 286.292969 467.871094 288.160156 464.699219 290.179688 C 464.417969 290.367188 464.132812 290.542969 463.828125 290.722656 C 463.914062 293.390625 463.910156 296.152344 463.808594 299.003906 C 465.007812 298.6875 466.238281 298.492188 467.484375 298.410156 Z M 483.878906 316.332031 C 484.960938 309.414062 485.785156 303.808594 486.441406 299.191406 C 486.238281 299.199219 486.03125 299.132812 485.851562 298.980469 C 485.152344 298.390625 484.859375 297.964844 484.738281 296.773438 C 484.65625 296.003906 484.679688 294.746094 484.664062 292.402344 C 481.542969 299.882812 478.894531 307.609375 476.628906 313.992188 C 479.253906 314.476562 481.671875 315.277344 483.878906 316.332031 Z M 448.722656 442.332031 C 448.777344 442.019531 448.835938 441.738281 448.910156 441.488281 C 449.144531 440.59375 449.5 440.058594 449.910156 439.785156 L 450.203125 439.640625 L 450.503906 439.5625 L 451.101562 439.597656 C 451.503906 439.691406 452.03125 439.980469 452.699219 440.535156 C 453.460938 441.164062 454.144531 442.144531 454.730469 443.226562 C 455.125 442.035156 455.773438 441.039062 456.664062 440.636719 C 457.367188 440.3125 458.253906 440.304688 459.355469 440.953125 C 459.988281 441.320312 460.722656 441.941406 461.5625 442.886719 C 466.742188 415.316406 470.878906 392.601562 474.210938 373.808594 C 470.375 365.230469 464.425781 350.140625 455.339844 338.1875 C 456.65625 342.199219 457.269531 344.183594 457.527344 345.300781 C 457.835938 346.640625 457.734375 347.03125 457.613281 347.644531 L 457.410156 348.199219 L 457.066406 348.617188 L 456.765625 348.804688 L 456.441406 348.886719 L 456.140625 348.886719 C 456.050781 348.878906 455.957031 348.863281 455.851562 348.835938 C 455.367188 348.691406 454.484375 348.148438 452.929688 346.671875 C 453.621094 350.609375 454.640625 357.058594 454.84375 362.027344 C 454.921875 363.949219 454.871094 365.664062 454.648438 366.949219 C 454.46875 368.015625 454.160156 368.824219 453.757812 369.34375 L 453.332031 369.746094 L 453.074219 369.890625 L 452.785156 369.972656 C 452.230469 370.066406 451.503906 369.761719 450.773438 368.816406 C 450.03125 367.863281 449.144531 366.132812 448.144531 363.933594 C 448.417969 384.203125 448.578125 410.691406 448.722656 442.332031 Z M 464.023438 314.074219 C 463.996094 313.027344 464.023438 311.988281 464.101562 310.957031 C 463.417969 311.390625 462.730469 311.859375 462.039062 312.347656 C 461.476562 313.617188 460.671875 314.160156 459.902344 314.007812 C 459.867188 314.007812 459.835938 314 459.800781 313.992188 C 459.132812 314.511719 458.460938 315.054688 457.792969 315.625 C 459.953125 314.9375 462.03125 314.433594 464.023438 314.074219 Z M 523.421875 344.046875 C 524.0625 344.195312 524.6875 344.339844 525.292969 344.476562 C 524.757812 344.074219 524.21875 343.691406 523.679688 343.316406 C 523.59375 343.5625 523.507812 343.808594 523.421875 344.046875 Z M 461.167969 270.308594 C 466.722656 267.601562 472.722656 265.453125 478.535156 263.535156 C 477.476562 263.171875 476.3125 262.515625 474.339844 261.320312 C 474.261719 261.277344 474.152344 261.277344 473.859375 261.382812 C 473.160156 261.621094 472.007812 262.25 470.007812 263.671875 C 469.59375 263.960938 469.058594 263.851562 468.757812 263.410156 C 468.757812 263.410156 467.183594 261.117188 467.183594 261.117188 C 464.417969 262.199219 461.851562 263.246094 459.449219 264.234375 C 460.082031 266.1875 460.65625 268.214844 461.167969 270.308594 Z M 465.988281 326.140625 C 463.40625 325.324219 460.691406 324.726562 457.878906 324.445312 C 465.023438 329.625 473.929688 336.441406 478.773438 347.558594 C 479.613281 342.625 480.371094 338.078125 481.066406 333.867188 C 477.902344 331.644531 474.414062 329.546875 470.621094 327.886719 C 469.917969 328.722656 469.21875 329.105469 468.613281 329.105469 C 467.964844 329.105469 467.304688 328.746094 466.722656 327.792969 C 466.46875 327.390625 466.234375 326.839844 465.988281 326.140625 Z M 508.21875 559.746094 C 508.117188 560.078125 507.886719 560.347656 507.578125 560.460938 C 474.28125 572.285156 461.476562 570.863281 446.363281 576 C 478.46875 577.859375 570.242188 575.121094 593.414062 579.023438 C 593.898438 579.101562 594.25 579.585938 594.25 580.15625 C 594.257812 580.71875 593.90625 581.214844 593.429688 581.300781 C 568.40625 585.933594 395.402344 597.179688 307.371094 588.824219 C 306.875 588.78125 306.488281 588.292969 306.480469 587.699219 C 306.464844 587.109375 306.839844 586.609375 307.335938 586.539062 C 330.917969 583.234375 375.164062 580.992188 404.578125 578.878906 C 402.972656 578.675781 401.078125 578.394531 398.699219 577.992188 C 398.238281 577.925781 397.894531 577.484375 397.863281 576.9375 C 397.828125 576.390625 398.121094 575.898438 398.5625 575.753906 C 413.851562 570.625 415.03125 573.035156 449.945312 565.121094 C 425.441406 562.511719 414.347656 560.808594 410.988281 560.289062 C 410.488281 560.214844 410.125 559.703125 410.144531 559.105469 C 410.152344 558.773438 410.28125 558.484375 410.476562 558.277344 C 410.625 557.964844 410.898438 557.742188 411.222656 557.699219 C 412.851562 557.503906 414.84375 557.257812 417.800781 557.019531 C 417.886719 556.992188 417.972656 556.984375 418.058594 556.984375 L 418.355469 556.976562 C 427.546875 556.292969 445.65625 555.75 488.390625 556.914062 C 495.425781 556.34375 498.175781 556.53125 507.585938 557.863281 C 508.117188 557.9375 508.5 558.507812 508.433594 559.140625 C 508.414062 559.371094 508.335938 559.574219 508.21875 559.746094 Z M 288.550781 586.8125 C 289.992188 586.929688 291.710938 587.085938 293.917969 587.28125 C 294.40625 587.324219 294.796875 587.800781 294.8125 588.386719 C 294.832031 588.96875 294.480469 589.480469 293.992188 589.5625 C 293.960938 589.574219 247.996094 597.113281 211.011719 590.476562 C 210.535156 590.390625 210.183594 589.90625 210.183594 589.34375 C 210.183594 588.773438 210.535156 588.285156 211.019531 588.199219 C 236.988281 583.667969 282.019531 586.34375 288.183594 586.710938 C 288.3125 586.710938 288.4375 586.753906 288.550781 586.8125 Z M 288.550781 586.8125 " fill-opacity="1" fill-rule="evenodd"/></g></svg>